{
	"asset":{
		"generator":"Khronos glTF Blender I/O v4.4.56",
		"version":"2.0"
	},
	"extensionsUsed":[
		"KHR_materials_specular",
		"KHR_materials_ior"
	],
	"scene":0,
	"scenes":[
		{
			"name":"Scene",
			"nodes":[
				1
			]
		}
	],
	"nodes":[
		{
			"mesh":0,
			"name":"Back",
			"translation":[
				-0.022717714309692383,
				0.6455838084220886,
				0.280504047870636
			]
		},
		{
			"children":[
				0
			],
			"mesh":1,
			"name":"Chair",
			"translation":[
				2.7853105068206787,
				0.7591976523399353,
				-0.4075315296649933
			]
		}
	],
	"materials":[
		{
			"doubleSided":true,
			"name":"Material.011",
			"pbrMetallicRoughness":{
				"baseColorFactor":[
					0.07255182415246964,
					0.22421035170555115,
					0.26675930619239807,
					1
				],
				"metallicFactor":0,
				"roughnessFactor":0.5
			}
		},
		{
			"doubleSided":true,
			"extensions":{
				"KHR_materials_specular":{
					"specularColorFactor":[
						1.7333333492279053,
						1.7333333492279053,
						1.7333333492279053
					]
				},
				"KHR_materials_ior":{
					"ior":1.4500000476837158
				}
			},
			"name":"Material.012",
			"pbrMetallicRoughness":{
				"baseColorFactor":[
					0.4769879877567291,
					0.4769879877567291,
					0.4769879877567291,
					1
				],
				"metallicFactor":0.7121212482452393,
				"roughnessFactor":0.18484848737716675
			}
		},
		{
			"doubleSided":true,
			"name":"Material.013",
			"pbrMetallicRoughness":{
				"baseColorFactor":[
					0.14032645523548126,
					0.359328955411911,
					0.4603126049041748,
					1
				],
				"metallicFactor":0,
				"roughnessFactor":0.5
			}
		}
	],
	"meshes":[
		{
			"name":"Cube.025",
			"primitives":[
				{
					"attributes":{
						"POSITION":0,
						"NORMAL":1,
						"TEXCOORD_0":2
					},
					"indices":3,
					"material":0
				}
			]
		},
		{
			"name":"Cube.018",
			"primitives":[
				{
					"attributes":{
						"POSITION":4,
						"NORMAL":5,
						"TEXCOORD_0":6
					},
					"indices":7,
					"material":1
				},
				{
					"attributes":{
						"POSITION":8,
						"NORMAL":9,
						"TEXCOORD_0":10
					},
					"indices":11,
					"material":2
				}
			]
		}
	],
	"accessors":[
		{
			"bufferView":0,
			"componentType":5126,
			"count":152,
			"max":[
				0.3196375370025635,
				0.4115262031555176,
				0.15727071464061737
			],
			"min":[
				-0.32147979736328125,
				-0.33757853507995605,
				-0.12030628323554993
			],
			"type":"VEC3"
		},
		{
			"bufferView":1,
			"componentType":5126,
			"count":152,
			"type":"VEC3"
		},
		{
			"bufferView":2,
			"componentType":5126,
			"count":152,
			"type":"VEC2"
		},
		{
			"bufferView":3,
			"componentType":5123,
			"count":228,
			"type":"SCALAR"
		},
		{
			"bufferView":4,
			"componentType":5126,
			"count":192529,
			"max":[
				0.28687119483947754,
				0.9951501488685608,
				0.41223466396331787
			],
			"min":[
				-0.2918434143066406,
				-0.591552734375,
				-0.3236038386821747
			],
			"type":"VEC3"
		},
		{
			"bufferView":5,
			"componentType":5126,
			"count":192529,
			"type":"VEC3"
		},
		{
			"bufferView":6,
			"componentType":5126,
			"count":192529,
			"type":"VEC2"
		},
		{
			"bufferView":7,
			"componentType":5125,
			"count":1152822,
			"type":"SCALAR"
		},
		{
			"bufferView":8,
			"componentType":5126,
			"count":23113,
			"max":[
				0.29321718215942383,
				0.24828773736953735,
				0.1981845200061798
			],
			"min":[
				-0.28806233406066895,
				-0.20250505208969116,
				-0.3377625644207001
			],
			"type":"VEC3"
		},
		{
			"bufferView":9,
			"componentType":5126,
			"count":23113,
			"type":"VEC3"
		},
		{
			"bufferView":10,
			"componentType":5126,
			"count":23113,
			"type":"VEC2"
		},
		{
			"bufferView":11,
			"componentType":5123,
			"count":135882,
			"type":"SCALAR"
		}
	],
	"bufferViews":[
		{
			"buffer":0,
			"byteLength":1824,
			"byteOffset":0,
			"target":34962
		},
		{
			"buffer":0,
			"byteLength":1824,
			"byteOffset":1824,
			"target":34962
		},
		{
			"buffer":0,
			"byteLength":1216,
			"byteOffset":3648,
			"target":34962
		},
		{
			"buffer":0,
			"byteLength":456,
			"byteOffset":4864,
			"target":34963
		},
		{
			"buffer":0,
			"byteLength":2310348,
			"byteOffset":5320,
			"target":34962
		},
		{
			"buffer":0,
			"byteLength":2310348,
			"byteOffset":2315668,
			"target":34962
		},
		{
			"buffer":0,
			"byteLength":1540232,
			"byteOffset":4626016,
			"target":34962
		},
		{
			"buffer":0,
			"byteLength":4611288,
			"byteOffset":6166248,
			"target":34963
		},
		{
			"buffer":0,
			"byteLength":277356,
			"byteOffset":10777536,
			"target":34962
		},
		{
			"buffer":0,
			"byteLength":277356,
			"byteOffset":11054892,
			"target":34962
		},
		{
			"buffer":0,
			"byteLength":184904,
			"byteOffset":11332248,
			"target":34962
		},
		{
			"buffer":0,
			"byteLength":271764,
			"byteOffset":11517152,
			"target":34963
		}
	],
	"buffers":[
		{
			"byteLength":11788916,
			"uri":"chair.bin"
		}
	]
}
