{
	"asset":{
		"generator":"Khronos glTF Blender I/O v4.4.56",
		"version":"2.0"
	},
	"extensionsUsed":[
		"KHR_materials_clearcoat",
		"KHR_materials_specular",
		"KHR_materials_anisotropy",
		"KHR_materials_ior"
	],
	"scene":0,
	"scenes":[
		{
			"name":"Scene",
			"nodes":[
				0
			]
		}
	],
	"nodes":[
		{
			"mesh":0,
			"name":"Desk",
			"scale":[
				1.172123908996582,
				0.0804770290851593,
				0.6125875115394592
			],
			"translation":[
				2.3954334259033203,
				1.1998188495635986,
				-1.5368082523345947
			]
		}
	],
	"materials":[
		{
			"doubleSided":true,
			"extensions":{
				"KHR_materials_clearcoat":{
					"clearcoatFactor":0.1560606062412262,
					"clearcoatRoughnessFactor":0.46939393877983093
				}
			},
			"name":"Material.002",
			"pbrMetallicRoughness":{
				"metallicFactor":0.48181819915771484,
				"roughnessFactor":0.7878787517547607
			}
		},
		{
			"doubleSided":true,
			"extensions":{
				"KHR_materials_clearcoat":{
					"clearcoatFactor":0.25
				},
				"KHR_materials_specular":{
					"specularColorFactor":[
						2.0,
						2.0,
						2.0
					]
				},
				"KHR_materials_anisotropy":{
					"anisotropyStrength":1
				},
				"KHR_materials_ior":{
					"ior":1.4500000476837158
				}
			},
			"name":"Material.004",
			"pbrMetallicRoughness":{
				"baseColorFactor":[
					0.046980902552604675,
					0.046980902552604675,
					0.046980902552604675,
					1
				],
				"metallicFactor":0.6969696879386902,
				"roughnessFactor":0.06060606241226196
			}
		}
	],
	"meshes":[
		{
			"name":"Cube.017",
			"primitives":[
				{
					"attributes":{
						"POSITION":0,
						"NORMAL":1,
						"TEXCOORD_0":2
					},
					"indices":3,
					"material":0
				},
				{
					"attributes":{
						"POSITION":4,
						"NORMAL":5,
						"TEXCOORD_0":6
					},
					"indices":7,
					"material":1
				}
			]
		}
	],
	"accessors":[
		{
			"bufferView":0,
			"componentType":5126,
			"count":574,
			"max":[
				1,
				0.18028712272644043,
				1
			],
			"min":[
				-1,
				-14.210371017456055,
				-1
			],
			"type":"VEC3"
		},
		{
			"bufferView":1,
			"componentType":5126,
			"count":574,
			"type":"VEC3"
		},
		{
			"bufferView":2,
			"componentType":5126,
			"count":574,
			"type":"VEC2"
		},
		{
			"bufferView":3,
			"componentType":5123,
			"count":972,
			"type":"SCALAR"
		},
		{
			"bufferView":4,
			"componentType":5126,
			"count":228,
			"max":[
				0.8649591207504272,
				-0.453521728515625,
				1
			],
			"min":[
				-0.7839842438697815,
				-14.064237594604492,
				-1
			],
			"type":"VEC3"
		},
		{
			"bufferView":5,
			"componentType":5126,
			"count":228,
			"type":"VEC3"
		},
		{
			"bufferView":6,
			"componentType":5126,
			"count":228,
			"type":"VEC2"
		},
		{
			"bufferView":7,
			"componentType":5123,
			"count":426,
			"type":"SCALAR"
		}
	],
	"bufferViews":[
		{
			"buffer":0,
			"byteLength":6888,
			"byteOffset":0,
			"target":34962
		},
		{
			"buffer":0,
			"byteLength":6888,
			"byteOffset":6888,
			"target":34962
		},
		{
			"buffer":0,
			"byteLength":4592,
			"byteOffset":13776,
			"target":34962
		},
		{
			"buffer":0,
			"byteLength":1944,
			"byteOffset":18368,
			"target":34963
		},
		{
			"buffer":0,
			"byteLength":2736,
			"byteOffset":20312,
			"target":34962
		},
		{
			"buffer":0,
			"byteLength":2736,
			"byteOffset":23048,
			"target":34962
		},
		{
			"buffer":0,
			"byteLength":1824,
			"byteOffset":25784,
			"target":34962
		},
		{
			"buffer":0,
			"byteLength":852,
			"byteOffset":27608,
			"target":34963
		}
	],
	"buffers":[
		{
			"byteLength":28460,
			"uri":"desk.bin"
		}
	]
}
